  0
SECTION
  2
HEADER
  9
$ACADVER
  1
AC1006
  0
ENDSEC
  0
SECTION
  2
TABLES
  0
TABLE
  2
LTYPE
 70
    9
  0
LTYPE
  2
CONTINUOUS
 70
   64
  3
SOLID
 72
   65
 73
    0
 40
0.0
  0
LTYPE
  2
DASHED
 70
   64
  3
_ _ _ _ _ _ _ _ _ _ _ _ _ _ _ _ _ _ _ _ _ _ _
 72
   65
 73
    2
 40
4.0
 49
3.0
 49
-1.0
  0
LTYPE
  2
DOT
 70
   64
  3
...............................................
 72
   65
 73
    2
 40
2.0
 49
1.0
 49
-1.0
  0
LTYPE
  2
DASHDOT
 70
   64
  3
____ _ ____ _ ____ _ ____ _ ____ _ ____ _ ____
 72
   65
 73
    4
 40
8.0
 49
5.0
 49
-1.0
 49
1.0
 49
-1.0
  0
LTYPE
  2
DIVIDE
 70
   64
  3
_____ _ _ _____ _ _ _____ _ _ _____ _ _ ____
 72
   65
 73
    6
 40
10.0
 49
5.0
 49
-1.0
 49
1.0
 49
-1.0
 49
1.0
 49
-1.0
  0
ENDTAB
  0
TABLE
  2
LAYER
 70
    2
  0
LAYER
  2
NULL
 70
   64
 62
    7
  6
CONTINUOUS
  0
LAYER
  2
base
 70
   64
 62
    7
  6
CONTINUOUS
  0
ENDTAB
  0
ENDSEC
  0
SECTION
  2
ENTITIES
  0
POINT
  8
base
 10
117.506408202468
 20
29.000000000000
 62
8
  0
POINT
  8
base
 10
117.506408202468
 20
2.000000000000
 62
8
  0
POINT
  8
base
 10
90.506408202468
 20
29.000000000000
 62
8
  0
POINT
  8
base
 10
90.506408202468
 20
2.000000000000
 62
8
  0
CIRCLE
  8
base
  6
CONTINUOUS
 62
8
 10
117.506408202468
 20
29.000000000000
 40
1.300000000000
  0
CIRCLE
  8
base
  6
CONTINUOUS
 62
8
 10
117.506408202468
 20
2.000000000000
 40
1.300000000000
  0
CIRCLE
  8
base
  6
CONTINUOUS
 62
8
 10
90.506408202468
 20
2.000000000000
 40
1.300000000000
  0
CIRCLE
  8
base
  6
CONTINUOUS
 62
8
 10
90.506408202468
 20
29.000000000000
 40
1.300000000000
  0
LINE
  8
base
  6
CONTINUOUS
 62
8
 10
120.006408202468
 20
29.000000000000
 11
120.006408202468
 21
1.500000000000
  0
LINE
  8
base
  6
CONTINUOUS
 62
8
 10
117.506408202468
 20
0.000000000000
 11
118.506408202468
 21
0.000000000000
  0
ARC
  8
base
  6
CONTINUOUS
 62
8
 10
117.506408202468
 20
2.000000000000
 40
2.000000000000
 50
184.236394799059
 51
270.000000000000
  0
ARC
  8
base
  6
CONTINUOUS
 62
8
 10
104.006408202468
 20
1.000000000000
 40
11.536986370680
 50
4.236394799059
 51
90.000000000000
  0
ARC
  8
base
  6
CONTINUOUS
 62
8
 10
118.506408202468
 20
1.500000000000
 40
1.500000000000
 50
-90.000000000000
 51
0.000000000000
  0
LINE
  8
base
  6
CONTINUOUS
 62
8
 10
90.506408202469
 20
0.000000000000
 11
89.506408202468
 21
0.000000000000
  0
ARC
  8
base
  6
CONTINUOUS
 62
8
 10
90.506408202469
 20
2.000000000000
 40
2.000000000000
 50
270.000000000000
 51
355.763605200941
  0
ARC
  8
base
  6
CONTINUOUS
 62
8
 10
104.006408202468
 20
1.000000000000
 40
11.536986370680
 50
90.000000000000
 51
175.763605200941
  0
LINE
  8
base
  6
CONTINUOUS
 62
8
 10
117.506408202468
 20
31.500000000000
 11
104.006408202468
 21
31.500000000000
  0
ARC
  8
base
  6
CONTINUOUS
 62
8
 10
117.506408202468
 20
29.000000000000
 40
2.500000000000
 50
0.000000000000
 51
90.000000000000
  0
LINE
  8
base
  6
CONTINUOUS
 62
8
 10
104.006408202468
 20
31.500000000000
 11
91.913726313522
 21
31.500000000000
  0
ARC
  8
base
  6
CONTINUOUS
 62
8
 10
89.506408202468
 20
1.500000000000
 40
1.500000000000
 50
180.000000000000
 51
270.000000000000
  0
LINE
  8
base
  6
CONTINUOUS
 62
8
 10
88.006408202468
 20
1.500000000000
 11
88.006408202468
 21
6.000000000000
  0
ARC
  8
base
  6
CONTINUOUS
 62
8
 10
83.006408202468
 20
42.000000000000
 40
3.000000000000
 50
0.000000000000
 51
90.000000000000
  0
LINE
  8
base
  6
CONTINUOUS
 62
8
 10
90.081812290665
 20
32.697447189986
 11
86.006408202468
 21
42.000000000000
  0
ARC
  8
base
  6
CONTINUOUS
 62
8
 10
91.913726313522
 20
33.500000000000
 40
2.000000000000
 50
203.657996998763
 51
270.000000000000
  0
LINE
  8
base
  6
CONTINUOUS
 62
8
 10
85.006408202468
 20
9.000000000000
 11
80.006408202468
 21
9.000000000000
  0
ARC
  8
base
  6
CONTINUOUS
 62
8
 10
85.006408202468
 20
6.000000000000
 40
3.000000000000
 50
0.000000000000
 51
90.000000000000
  0
LINE
  8
base
  6
CONTINUOUS
 62
8
 10
83.006408202468
 20
45.000000000000
 11
66.714612134968
 21
45.000000000000
  0
POINT
  8
base
 10
79.756408202468
 20
9.000000000000
 62
8
  0
LINE
  8
base
  6
CONTINUOUS
 62
8
 10
79.756408202468
 20
9.000000000000
 11
80.006408202468
 21
9.000000000000
  0
POINT
  8
base
 10
79.881408202468
 20
9.000000000000
 62
8
  0
POINT
  8
base
 10
80.006408202468
 20
9.000000000000
 62
8
  0
LINE
  8
base
  6
CONTINUOUS
 62
8
 10
79.756408202468
 20
9.000000000000
 11
40.256408202468
 21
9.000000000000
  0
POINT
  8
base
 10
2.506408202468
 20
29.000000000000
 62
8
  0
POINT
  8
base
 10
2.506408202469
 20
2.000000000000
 62
8
  0
POINT
  8
base
 10
29.506408202468
 20
29.000000000000
 62
8
  0
POINT
  8
base
 10
29.506408202468
 20
2.000000000000
 62
8
  0
CIRCLE
  8
base
  6
CONTINUOUS
 62
8
 10
2.506408202468
 20
29.000000000000
 40
1.300000000000
  0
CIRCLE
  8
base
  6
CONTINUOUS
 62
8
 10
2.506408202469
 20
2.000000000000
 40
1.300000000000
  0
CIRCLE
  8
base
  6
CONTINUOUS
 62
8
 10
29.506408202468
 20
2.000000000000
 40
1.300000000000
  0
CIRCLE
  8
base
  6
CONTINUOUS
 62
8
 10
29.506408202468
 20
29.000000000000
 40
1.300000000000
  0
LINE
  8
base
  6
CONTINUOUS
 62
8
 10
0.006408202468
 20
29.000000000000
 11
0.006408202468
 21
1.500000000000
  0
LINE
  8
base
  6
CONTINUOUS
 62
8
 10
2.506408202469
 20
0.000000000000
 11
1.506408202468
 21
0.000000000000
  0
ARC
  8
base
  6
CONTINUOUS
 62
8
 10
2.506408202469
 20
2.000000000000
 40
2.000000000000
 50
270.000000000000
 51
355.763605200941
  0
ARC
  8
base
  6
CONTINUOUS
 62
8
 10
16.006408202468
 20
1.000000000000
 40
11.536986370680
 50
90.000000000000
 51
175.763605200941
  0
ARC
  8
base
  6
CONTINUOUS
 62
8
 10
1.506408202468
 20
1.500000000000
 40
1.500000000000
 50
180.000000000000
 51
270.000000000000
  0
LINE
  8
base
  6
CONTINUOUS
 62
8
 10
29.506408202468
 20
0.000000000000
 11
30.506408202468
 21
0.000000000000
  0
ARC
  8
base
  6
CONTINUOUS
 62
8
 10
29.506408202468
 20
2.000000000000
 40
2.000000000000
 50
184.236394799059
 51
270.000000000000
  0
ARC
  8
base
  6
CONTINUOUS
 62
8
 10
16.006408202469
 20
1.000000000000
 40
11.536986370680
 50
4.236394799059
 51
90.000000000000
  0
LINE
  8
base
  6
CONTINUOUS
 62
8
 10
2.506408202468
 20
31.500000000000
 11
16.006408202468
 21
31.500000000000
  0
ARC
  8
base
  6
CONTINUOUS
 62
8
 10
2.506408202468
 20
29.000000000000
 40
2.500000000000
 50
90.000000000000
 51
180.000000000000
  0
LINE
  8
base
  6
CONTINUOUS
 62
8
 10
16.006408202468
 20
31.500000000000
 11
28.099090091415
 21
31.500000000000
  0
ARC
  8
base
  6
CONTINUOUS
 62
8
 10
30.506408202468
 20
1.500000000000
 40
1.500000000000
 50
-90.000000000000
 51
0.000000000000
  0
LINE
  8
base
  6
CONTINUOUS
 62
8
 10
32.006408202468
 20
1.500000000000
 11
32.006408202468
 21
6.000000000000
  0
ARC
  8
base
  6
CONTINUOUS
 62
8
 10
37.006408202468
 20
42.000000000000
 40
3.000000000000
 50
90.000000000000
 51
180.000000000000
  0
LINE
  8
base
  6
CONTINUOUS
 62
8
 10
29.931004114272
 20
32.697447189986
 11
34.006408202468
 21
42.000000000000
  0
ARC
  8
base
  6
CONTINUOUS
 62
8
 10
28.099090091415
 20
33.500000000000
 40
2.000000000000
 50
270.000000000000
 51
336.342003001237
  0
LINE
  8
base
  6
CONTINUOUS
 62
8
 10
35.006408202468
 20
9.000000000000
 11
40.006408202468
 21
9.000000000000
  0
ARC
  8
base
  6
CONTINUOUS
 62
8
 10
35.006408202468
 20
6.000000000000
 40
3.000000000000
 50
90.000000000000
 51
180.000000000000
  0
LINE
  8
base
  6
CONTINUOUS
 62
8
 10
37.006408202468
 20
45.000000000000
 11
52.590209715373
 21
45.000000000000
  0
POINT
  8
base
 10
79.881408202468
 20
37.000000000000
 62
8
  0
CIRCLE
  8
base
  6
CONTINUOUS
 62
8
 10
79.881408202468
 20
37.000000000000
 40
1.000000000000
  0
POINT
  8
base
 10
79.881408202468
 20
29.000000000000
 62
8
  0
POINT
  8
base
 10
79.881408202468
 20
21.000000000000
 62
8
  0
CIRCLE
  8
base
  6
CONTINUOUS
 62
8
 10
79.881408202468
 20
29.000000000000
 40
1.000000000000
  0
CIRCLE
  8
base
  6
CONTINUOUS
 62
8
 10
79.881408202468
 20
21.000000000000
 40
1.000000000000
  0
CIRCLE
  8
base
  6
CONTINUOUS
 62
8
 10
79.881408202468
 20
13.000000000000
 40
1.000000000000
  0
CIRCLE
  8
base
  6
CONTINUOUS
 62
8
 10
40.131408202468
 20
37.000000000000
 40
1.000000000000
  0
CIRCLE
  8
base
  6
CONTINUOUS
 62
8
 10
40.131408202468
 20
29.000000000000
 40
1.000000000000
  0
CIRCLE
  8
base
  6
CONTINUOUS
 62
8
 10
40.131408202468
 20
21.000000000000
 40
1.000000000000
  0
CIRCLE
  8
base
  6
CONTINUOUS
 62
8
 10
40.131408202468
 20
13.000000000000
 40
1.000000000000
  0
LINE
  8
base
  6
CONTINUOUS
 62
8
 10
40.006408202468
 20
9.000000000000
 11
40.256408202468
 21
9.000000000000
  0
CIRCLE
  8
base
  6
CONTINUOUS
 62
8
 10
60.006408202468
 20
19.000000000000
 40
5.000000000000
  0
CIRCLE
  8
base
  6
CONTINUOUS
 62
8
 10
66.016815842554
 20
12.989592359914
 40
1.300000000000
  0
CIRCLE
  8
base
  6
CONTINUOUS
 62
8
 10
68.506408202468
 20
19.000000000000
 40
1.300000000000
  0
CIRCLE
  8
base
  6
CONTINUOUS
 62
8
 10
66.016815842554
 20
25.010407640085
 40
1.300000000000
  0
CIRCLE
  8
base
  6
CONTINUOUS
 62
8
 10
60.006408202468
 20
27.500000000000
 40
1.300000000000
  0
CIRCLE
  8
base
  6
CONTINUOUS
 62
8
 10
53.996000562383
 20
25.010407640085
 40
1.300000000000
  0
CIRCLE
  8
base
  6
CONTINUOUS
 62
8
 10
51.506408202468
 20
19.000000000000
 40
1.300000000000
  0
CIRCLE
  8
base
  6
CONTINUOUS
 62
8
 10
53.996000562383
 20
12.989592359914
 40
1.300000000000
  0
CIRCLE
  8
base
  6
CONTINUOUS
 62
8
 10
60.006408202468
 20
10.500000000000
 40
1.300000000000
  0
POINT
  8
base
 10
46.506408202468
 20
40.000000000000
 62
8
  0
POINT
  8
base
 10
46.506408202468
 20
13.000000000000
 62
8
  0
POINT
  8
base
 10
73.506408202468
 20
40.000000000000
 62
8
  0
POINT
  8
base
 10
73.506408202468
 20
13.000000000000
 62
8
  0
POINT
  8
base
 10
46.506408202468
 20
13.000000000000
 62
8
  0
CIRCLE
  8
base
  6
CONTINUOUS
 62
8
 10
73.506408202468
 20
13.000000000000
 40
1.300000000000
  0
CIRCLE
  8
base
  6
CONTINUOUS
 62
8
 10
73.506408202468
 20
40.000000000000
 40
1.300000000000
  0
CIRCLE
  8
base
  6
CONTINUOUS
 62
8
 10
46.506408202468
 20
13.000000000000
 40
1.300000000000
  0
CIRCLE
  8
base
  6
CONTINUOUS
 62
8
 10
46.506408202468
 20
40.000000000000
 40
1.300000000000
  0
ARC
  8
base
  6
CONTINUOUS
 62
8
 10
60.006408202468
 20
45.000000000000
 40
5.000000000000
 50
202.024312837042
 51
343.398450400980
  0
ARC
  8
base
  6
CONTINUOUS
 62
8
 10
66.714612134968
 20
43.000000000000
 40
2.000000000000
 50
90.000000000000
 51
163.398450400980
  0
ARC
  8
base
  6
CONTINUOUS
 62
8
 10
52.590209715373
 20
42.000000000000
 40
3.000000000000
 50
22.024312837042
 51
90.000000000000
  0
ENDSEC
  0
EOF
