  0
SECTION
  2
HEADER
  9
$ACADVER
  1
AC1006
  0
ENDSEC
  0
SECTION
  2
TABLES
  0
TABLE
  2
LTYPE
 70
    9
  0
LTYPE
  2
CONTINUOUS
 70
   64
  3
SOLID
 72
   65
 73
    0
 40
0.0
  0
LTYPE
  2
DASHED
 70
   64
  3
_ _ _ _ _ _ _ _ _ _ _ _ _ _ _ _ _ _ _ _ _ _ _
 72
   65
 73
    2
 40
4.0
 49
3.0
 49
-1.0
  0
LTYPE
  2
DOT
 70
   64
  3
...............................................
 72
   65
 73
    2
 40
2.0
 49
1.0
 49
-1.0
  0
LTYPE
  2
DASHDOT
 70
   64
  3
____ _ ____ _ ____ _ ____ _ ____ _ ____ _ ____
 72
   65
 73
    4
 40
8.0
 49
5.0
 49
-1.0
 49
1.0
 49
-1.0
  0
LTYPE
  2
DIVIDE
 70
   64
  3
_____ _ _ _____ _ _ _____ _ _ _____ _ _ ____
 72
   65
 73
    6
 40
10.0
 49
5.0
 49
-1.0
 49
1.0
 49
-1.0
 49
1.0
 49
-1.0
  0
ENDTAB
  0
TABLE
  2
LAYER
 70
    2
  0
LAYER
  2
NULL
 70
   64
 62
    7
  6
CONTINUOUS
  0
LAYER
  2
Layer0
 70
   64
 62
    7
  6
CONTINUOUS
  0
ENDTAB
  0
ENDSEC
  0
SECTION
  2
ENTITIES
  0
CIRCLE
  8
Layer0
  6
CONTINUOUS
 62
8
 10
2.997445712644
 20
8.000000000000
 40
1.000000000000
  0
CIRCLE
  8
Layer0
  6
CONTINUOUS
 62
8
 10
7.947193317814
 20
10.050252201274
 40
1.000000000000
  0
CIRCLE
  8
Layer0
  6
CONTINUOUS
 62
8
 10
9.997446179928
 20
14.999999532716
 40
1.000000000000
  0
CIRCLE
  8
Layer0
  6
CONTINUOUS
 62
8
 10
7.947193978654
 20
19.949747137886
 40
1.000000000000
  0
CIRCLE
  8
Layer0
  6
CONTINUOUS
 62
8
 10
2.997446647213
 20
22.000000000000
 40
1.000000000000
  0
ARC
  8
Layer0
  6
CONTINUOUS
 62
8
 10
2.997446179928
 20
14.999996650490
 40
5.000000000000
 50
0.000000000000
 51
90.000000000000
  0
LINE
  8
Layer0
  6
CONTINUOUS
 62
8
 10
2.997446179928
 20
19.999996650490
 11
1.500000000000
 21
19.999996650490
  0
LINE
  8
Layer0
  6
CONTINUOUS
 62
8
 10
2.997445712644
 20
24.999996650490
 11
1.500000000000
 21
24.999996650490
  0
LINE
  8
Layer0
  6
CONTINUOUS
 62
8
 10
0.000000000000
 20
21.499996650490
 11
0.000000000000
 21
23.499996650490
  0
ARC
  8
Layer0
  6
CONTINUOUS
 62
8
 10
1.500000000000
 20
23.499996650490
 40
1.500000000000
 50
90.000000000000
 51
180.000000000000
  0
ARC
  8
Layer0
  6
CONTINUOUS
 62
8
 10
1.500000000000
 20
21.499996650490
 40
1.500000000000
 50
180.000000000000
 51
270.000000000000
  0
POINT
  8
Layer0
 10
51.797446179928
 20
14.999998325245
 62
8
  0
CIRCLE
  8
Layer0
  6
CONTINUOUS
 62
8
 10
45.797446179928
 20
14.999998325245
 40
1.000000000000
  0
CIRCLE
  8
Layer0
  6
CONTINUOUS
 62
8
 10
51.797446179928
 20
8.999998325245
 40
1.000000000000
  0
CIRCLE
  8
Layer0
  6
CONTINUOUS
 62
8
 10
56.040086867047
 20
10.757357638126
 40
1.000000000000
  0
CIRCLE
  8
Layer0
  6
CONTINUOUS
 62
8
 10
57.797446179928
 20
14.999998325245
 40
1.000000000000
  0
CIRCLE
  8
Layer0
  6
CONTINUOUS
 62
8
 10
56.040086867047
 20
19.242639012364
 40
1.000000000000
  0
CIRCLE
  8
Layer0
  6
CONTINUOUS
 62
8
 10
51.797446179928
 20
20.999998325245
 40
1.000000000000
  0
CIRCLE
  8
Layer0
  6
CONTINUOUS
 62
8
 10
47.554805492809
 20
19.242639012364
 40
1.000000000000
  0
CIRCLE
  8
Layer0
  6
CONTINUOUS
 62
8
 10
47.554805492809
 20
10.757357638126
 40
1.000000000000
  0
CIRCLE
  8
Layer0
  6
CONTINUOUS
 62
8
 10
51.797446179928
 20
14.999998325245
 40
4.100000000000
  0
LINE
  8
Layer0
  6
CONTINUOUS
 62
8
 10
51.797446179928
 20
29.999998325245
 11
36.947273764085
 21
29.999998325245
  0
ARC
  8
Layer0
  6
CONTINUOUS
 62
8
 10
31.897446179928
 20
27.999998325245
 40
0.800000000000
 50
219.675424167425
 51
350.694966184528
  0
LINE
  8
Layer0
  6
CONTINUOUS
 62
8
 10
35.705864931181
 20
29.731097757633
 11
33.259957961956
 21
28.619321862530
  0
LINE
  8
Layer0
  6
CONTINUOUS
 62
8
 10
30.408782463622
 20
27.845465675769
 11
2.997445712644
 21
24.999996650490
  0
ARC
  8
Layer0
  6
CONTINUOUS
 62
8
 10
36.947273764085
 20
26.999998325245
 40
3.000000000000
 50
90.000000000000
 51
114.443954780417
  0
ARC
  8
Layer0
  6
CONTINUOUS
 62
8
 10
30.512033933159
 20
26.850810391744
 40
1.000000000000
 50
39.675424167425
 51
95.926435571536
  0
ARC
  8
Layer0
  6
CONTINUOUS
 62
8
 10
33.673760906257
 20
27.708955385068
 40
1.000000000000
 50
114.443954780416
 51
170.694966184528
  0
CIRCLE
  8
Layer0
  6
CONTINUOUS
 62
8
 10
38.797446179928
 20
22.999998325245
 40
1.050000000000
  0
CIRCLE
  8
Layer0
  6
CONTINUOUS
 62
8
 10
38.797446179928
 20
6.999998325245
 40
1.050000000000
  0
CIRCLE
  8
Layer0
  6
CONTINUOUS
 62
8
 10
64.797446179928
 20
6.999998325245
 40
1.050000000000
  0
CIRCLE
  8
Layer0
  6
CONTINUOUS
 62
8
 10
64.797446179928
 20
22.999998325245
 40
1.050000000000
  0
ARC
  8
Layer0
  6
CONTINUOUS
 62
8
 10
100.597446179928
 20
14.999996650490
 40
5.000000000000
 50
90.000000000000
 51
180.000000000000
  0
LINE
  8
Layer0
  6
CONTINUOUS
 62
8
 10
100.597446179928
 20
19.999996650490
 11
102.094892359856
 21
19.999996650490
  0
LINE
  8
Layer0
  6
CONTINUOUS
 62
8
 10
100.597446647212
 20
24.999996650490
 11
102.094892359856
 21
24.999996650490
  0
LINE
  8
Layer0
  6
CONTINUOUS
 62
8
 10
103.594892359856
 20
21.499996650490
 11
103.594892359856
 21
23.499996650490
  0
ARC
  8
Layer0
  6
CONTINUOUS
 62
8
 10
102.094892359856
 20
23.499996650490
 40
1.500000000000
 50
0.000000000000
 51
90.000000000000
  0
ARC
  8
Layer0
  6
CONTINUOUS
 62
8
 10
102.094892359856
 20
21.499996650490
 40
1.500000000000
 50
-90.000000000000
 51
0.000000000000
  0
LINE
  8
Layer0
  6
CONTINUOUS
 62
8
 10
51.797446179928
 20
29.999998325245
 11
66.647618595771
 21
29.999998325245
  0
ARC
  8
Layer0
  6
CONTINUOUS
 62
8
 10
71.697446179928
 20
27.999998325245
 40
0.800000000000
 50
189.305033815472
 51
320.324575832575
  0
LINE
  8
Layer0
  6
CONTINUOUS
 62
8
 10
67.889027428675
 20
29.731097757633
 11
70.334934397900
 21
28.619321862530
  0
LINE
  8
Layer0
  6
CONTINUOUS
 62
8
 10
73.186109896234
 20
27.845465675769
 11
100.597446647212
 21
24.999996650490
  0
ARC
  8
Layer0
  6
CONTINUOUS
 62
8
 10
66.647618595771
 20
26.999998325245
 40
3.000000000000
 50
65.556045219583
 51
90.000000000000
  0
ARC
  8
Layer0
  6
CONTINUOUS
 62
8
 10
73.082858426697
 20
26.850810391744
 40
1.000000000000
 50
84.073564428464
 51
140.324575832576
  0
ARC
  8
Layer0
  6
CONTINUOUS
 62
8
 10
69.921131453599
 20
27.708955385068
 40
1.000000000000
 50
9.305033815472
 51
65.556045219584
  0
ARC
  8
Layer0
  6
CONTINUOUS
 62
8
 10
100.597446179928
 20
15.000000000000
 40
5.000000000000
 50
180.000000000000
 51
270.000000000000
  0
LINE
  8
Layer0
  6
CONTINUOUS
 62
8
 10
100.597446179928
 20
10.000000000000
 11
102.094892359856
 21
10.000000000000
  0
LINE
  8
Layer0
  6
CONTINUOUS
 62
8
 10
100.597446647212
 20
5.000000000000
 11
102.094892359856
 21
5.000000000000
  0
LINE
  8
Layer0
  6
CONTINUOUS
 62
8
 10
103.594892359856
 20
8.500000000000
 11
103.594892359856
 21
6.500000000000
  0
ARC
  8
Layer0
  6
CONTINUOUS
 62
8
 10
102.094892359856
 20
6.500000000000
 40
1.500000000000
 50
-90.000000000000
 51
0.000000000000
  0
ARC
  8
Layer0
  6
CONTINUOUS
 62
8
 10
102.094892359856
 20
8.500000000000
 40
1.500000000000
 50
0.000000000000
 51
90.000000000000
  0
LINE
  8
Layer0
  6
CONTINUOUS
 62
8
 10
51.797446179928
 20
-0.000001674755
 11
66.647618595771
 21
-0.000001674755
  0
ARC
  8
Layer0
  6
CONTINUOUS
 62
8
 10
71.697446179928
 20
1.999998325245
 40
0.800000000000
 50
39.675424167425
 51
170.694966184528
  0
LINE
  8
Layer0
  6
CONTINUOUS
 62
8
 10
67.889027428675
 20
0.268898892857
 11
70.334934397900
 21
1.380674787960
  0
LINE
  8
Layer0
  6
CONTINUOUS
 62
8
 10
73.186109896234
 20
2.154530974721
 11
100.597446647212
 21
5.000000000000
  0
ARC
  8
Layer0
  6
CONTINUOUS
 62
8
 10
66.647618595771
 20
2.999998325245
 40
3.000000000000
 50
270.000000000000
 51
294.443954780416
  0
ARC
  8
Layer0
  6
CONTINUOUS
 62
8
 10
73.082858426697
 20
3.149186258746
 40
1.000000000000
 50
219.675424167425
 51
275.926435571536
  0
ARC
  8
Layer0
  6
CONTINUOUS
 62
8
 10
69.921131453599
 20
2.291041265422
 40
1.000000000000
 50
294.443954780416
 51
350.694966184528
  0
ARC
  8
Layer0
  6
CONTINUOUS
 62
8
 10
2.997446179928
 20
15.000000000000
 40
5.000000000000
 50
-90.000000000000
 51
0.000000000000
  0
LINE
  8
Layer0
  6
CONTINUOUS
 62
8
 10
2.997446179928
 20
10.000000000000
 11
1.500000000000
 21
10.000000000000
  0
LINE
  8
Layer0
  6
CONTINUOUS
 62
8
 10
2.997445712644
 20
5.000000000000
 11
1.500000000000
 21
5.000000000000
  0
LINE
  8
Layer0
  6
CONTINUOUS
 62
8
 10
0.000000000000
 20
8.500000000000
 11
0.000000000000
 21
6.500000000000
  0
ARC
  8
Layer0
  6
CONTINUOUS
 62
8
 10
1.500000000000
 20
6.500000000000
 40
1.500000000000
 50
180.000000000000
 51
270.000000000000
  0
ARC
  8
Layer0
  6
CONTINUOUS
 62
8
 10
1.500000000000
 20
8.500000000000
 40
1.500000000000
 50
90.000000000000
 51
180.000000000000
  0
LINE
  8
Layer0
  6
CONTINUOUS
 62
8
 10
51.797446179928
 20
-0.000001674755
 11
36.947273764085
 21
-0.000001674755
  0
ARC
  8
Layer0
  6
CONTINUOUS
 62
8
 10
31.897446179928
 20
1.999998325245
 40
0.800000000000
 50
9.305033815472
 51
140.324575832575
  0
LINE
  8
Layer0
  6
CONTINUOUS
 62
8
 10
35.705864931181
 20
0.268898892857
 11
33.259957961956
 21
1.380674787960
  0
LINE
  8
Layer0
  6
CONTINUOUS
 62
8
 10
30.408782463622
 20
2.154530974721
 11
2.997445712644
 21
5.000000000000
  0
ARC
  8
Layer0
  6
CONTINUOUS
 62
8
 10
36.947273764085
 20
2.999998325245
 40
3.000000000000
 50
245.556045219583
 51
270.000000000000
  0
ARC
  8
Layer0
  6
CONTINUOUS
 62
8
 10
30.512033933159
 20
3.149186258746
 40
1.000000000000
 50
264.073564428464
 51
320.324575832576
  0
ARC
  8
Layer0
  6
CONTINUOUS
 62
8
 10
33.673760906257
 20
2.291041265422
 40
1.000000000000
 50
189.305033815472
 51
245.556045219584
  0
CIRCLE
  8
Layer0
  6
CONTINUOUS
 62
8
 10
31.897446179928
 20
18.999998325245
 40
0.800000000000
  0
CIRCLE
  8
Layer0
  6
CONTINUOUS
 62
8
 10
31.897446179928
 20
10.999998325245
 40
0.800000000000
  0
CIRCLE
  8
Layer0
  6
CONTINUOUS
 62
8
 10
71.697446179928
 20
10.999998325245
 40
0.800000000000
  0
CIRCLE
  8
Layer0
  6
CONTINUOUS
 62
8
 10
71.697446179928
 20
18.999998325245
 40
0.800000000000
  0
CIRCLE
  8
Layer0
  6
CONTINUOUS
 62
8
 10
100.597446647212
 20
8.000000000000
 40
1.000000000000
  0
CIRCLE
  8
Layer0
  6
CONTINUOUS
 62
8
 10
95.647699042042
 20
10.050252201274
 40
1.000000000000
  0
CIRCLE
  8
Layer0
  6
CONTINUOUS
 62
8
 10
93.597446179928
 20
14.999999532716
 40
1.000000000000
  0
CIRCLE
  8
Layer0
  6
CONTINUOUS
 62
8
 10
95.647698381202
 20
19.949747137886
 40
1.000000000000
  0
CIRCLE
  8
Layer0
  6
CONTINUOUS
 62
8
 10
100.597445712643
 20
22.000000000000
 40
1.000000000000
  0
CIRCLE
  8
Layer0
  6
CONTINUOUS
 62
8
 10
16.497446179928
 20
14.999998325245
 40
0.850000000000
  0
CIRCLE
  8
Layer0
  6
CONTINUOUS
 62
8
 10
26.497446179928
 20
14.999998325245
 40
0.850000000000
  0
CIRCLE
  8
Layer0
  6
CONTINUOUS
 62
8
 10
87.097446179928
 20
14.999998325245
 40
0.850000000000
  0
CIRCLE
  8
Layer0
  6
CONTINUOUS
 62
8
 10
77.097446179928
 20
14.999998325245
 40
0.850000000000
  0
ENDSEC
  0
EOF
