  0
SECTION
  2
HEADER
  9
$ACADVER
  1
AC1006
  0
ENDSEC
  0
SECTION
  2
TABLES
  0
TABLE
  2
LTYPE
 70
    9
  0
LTYPE
  2
CONTINUOUS
 70
   64
  3
SOLID
 72
   65
 73
    0
 40
0.0
  0
LTYPE
  2
DASHED
 70
   64
  3
_ _ _ _ _ _ _ _ _ _ _ _ _ _ _ _ _ _ _ _ _ _ _
 72
   65
 73
    2
 40
4.0
 49
3.0
 49
-1.0
  0
LTYPE
  2
DOT
 70
   64
  3
...............................................
 72
   65
 73
    2
 40
2.0
 49
1.0
 49
-1.0
  0
LTYPE
  2
DASHDOT
 70
   64
  3
____ _ ____ _ ____ _ ____ _ ____ _ ____ _ ____
 72
   65
 73
    4
 40
8.0
 49
5.0
 49
-1.0
 49
1.0
 49
-1.0
  0
LTYPE
  2
DIVIDE
 70
   64
  3
_____ _ _ _____ _ _ _____ _ _ _____ _ _ ____
 72
   65
 73
    6
 40
10.0
 49
5.0
 49
-1.0
 49
1.0
 49
-1.0
 49
1.0
 49
-1.0
  0
ENDTAB
  0
TABLE
  2
LAYER
 70
    2
  0
LAYER
  2
NULL
 70
   64
 62
    7
  6
CONTINUOUS
  0
LAYER
  2
Layer0
 70
   64
 62
    7
  6
CONTINUOUS
  0
ENDTAB
  0
ENDSEC
  0
SECTION
  2
ENTITIES
  0
ARC
  8
Layer0
  6
CONTINUOUS
 62
8
 10
2.997446179928
 20
15.000000000000
 40
5.000000000000
 50
-90.000000000000
 51
0.000000000000
  0
CIRCLE
  8
Layer0
  6
CONTINUOUS
 62
8
 10
2.997445712644
 20
8.000000000000
 40
1.000000000000
  0
CIRCLE
  8
Layer0
  6
CONTINUOUS
 62
8
 10
7.947193317814
 20
10.050252201274
 40
1.000000000000
  0
CIRCLE
  8
Layer0
  6
CONTINUOUS
 62
8
 10
9.997446179928
 20
14.999999532716
 40
1.000000000000
  0
CIRCLE
  8
Layer0
  6
CONTINUOUS
 62
8
 10
7.947193978654
 20
19.949747137886
 40
1.000000000000
  0
CIRCLE
  8
Layer0
  6
CONTINUOUS
 62
8
 10
2.997446647213
 20
22.000000000000
 40
1.000000000000
  0
LINE
  8
Layer0
  6
CONTINUOUS
 62
8
 10
2.997446179928
 20
10.000000000000
 11
1.500000000000
 21
10.000000000000
  0
LINE
  8
Layer0
  6
CONTINUOUS
 62
8
 10
2.997445712644
 20
5.000000000000
 11
1.500000000000
 21
5.000000000000
  0
LINE
  8
Layer0
  6
CONTINUOUS
 62
8
 10
-0.000000000000
 20
8.500000000000
 11
-0.000000000000
 21
6.500000000000
  0
ARC
  8
Layer0
  6
CONTINUOUS
 62
8
 10
1.500000000000
 20
6.500000000000
 40
1.500000000000
 50
180.000000000000
 51
270.000000000000
  0
ARC
  8
Layer0
  6
CONTINUOUS
 62
8
 10
1.500000000000
 20
8.500000000000
 40
1.500000000000
 50
90.000000000000
 51
180.000000000000
  0
CIRCLE
  8
Layer0
  6
CONTINUOUS
 62
8
 10
70.297446179928
 20
14.999998325245
 40
6.250000000000
  0
ARC
  8
Layer0
  6
CONTINUOUS
 62
8
 10
2.997446179928
 20
14.999996650490
 40
5.000000000000
 50
0.000000000000
 51
90.000000000000
  0
LINE
  8
Layer0
  6
CONTINUOUS
 62
8
 10
2.997446179928
 20
19.999996650490
 11
1.500000000000
 21
19.999996650490
  0
LINE
  8
Layer0
  6
CONTINUOUS
 62
8
 10
2.997445712644
 20
24.999996650490
 11
1.500000000000
 21
24.999996650490
  0
LINE
  8
Layer0
  6
CONTINUOUS
 62
8
 10
0.000000000000
 20
21.499996650490
 11
0.000000000000
 21
23.499996650490
  0
ARC
  8
Layer0
  6
CONTINUOUS
 62
8
 10
1.500000000000
 20
23.499996650490
 40
1.500000000000
 50
90.000000000000
 51
180.000000000000
  0
ARC
  8
Layer0
  6
CONTINUOUS
 62
8
 10
1.500000000000
 20
21.499996650490
 40
1.500000000000
 50
180.000000000000
 51
270.000000000000
  0
LINE
  8
Layer0
  6
CONTINUOUS
 62
8
 10
70.297446179928
 20
-0.000000000000
 11
52.186999196745
 21
-0.000000000000
  0
ARC
  8
Layer0
  6
CONTINUOUS
 62
8
 10
50.397446179928
 20
0.000000000000
 40
1.050000000000
 50
29.196404409633
 51
144.782005451324
  0
ARC
  8
Layer0
  6
CONTINUOUS
 62
8
 10
52.186999196745
 20
1.000000000000
 40
1.000000000000
 50
209.196404409632
 51
270.000000000000
  0
LINE
  8
Layer0
  6
CONTINUOUS
 62
8
 10
53.297446179928
 20
29.999996650490
 11
52.186999196745
 21
29.999996650490
  0
CIRCLE
  8
Layer0
  6
CONTINUOUS
 62
8
 10
22.997446180632
 20
14.999998325245
 40
0.850000000000
  0
CIRCLE
  8
Layer0
  6
CONTINUOUS
 62
8
 10
32.997446180632
 20
14.999998325245
 40
0.850000000000
  0
CIRCLE
  8
Layer0
  6
CONTINUOUS
 62
8
 10
42.997446180632
 20
14.999998325245
 40
0.850000000000
  0
LINE
  8
Layer0
  6
CONTINUOUS
 62
8
 10
87.297446179928
 20
29.999996650490
 11
88.407893163110
 21
29.999996650490
  0
CIRCLE
  8
Layer0
  6
CONTINUOUS
 62
8
 10
56.797446179928
 20
42.999998325245
 40
1.050000000000
  0
CIRCLE
  8
Layer0
  6
CONTINUOUS
 62
8
 10
56.797446179928
 20
15.999998325245
 40
1.050000000000
  0
CIRCLE
  8
Layer0
  6
CONTINUOUS
 62
8
 10
83.797446179928
 20
42.999998325245
 40
1.050000000000
  0
CIRCLE
  8
Layer0
  6
CONTINUOUS
 62
8
 10
83.797446179928
 20
15.999998325245
 40
1.050000000000
  0
LINE
  8
Layer0
  6
CONTINUOUS
 62
8
 10
54.297446179928
 20
42.999998325245
 11
54.297446179928
 21
30.999996650490
  0
LINE
  8
Layer0
  6
CONTINUOUS
 62
8
 10
57.297446179928
 20
45.999998325245
 11
59.905141334515
 21
45.999998325245
  0
LINE
  8
Layer0
  6
CONTINUOUS
 62
8
 10
86.297446179928
 20
42.999998325245
 11
86.297446179928
 21
30.999996650490
  0
LINE
  8
Layer0
  6
CONTINUOUS
 62
8
 10
2.997446179928
 20
5.000000000000
 11
48.617767135608
 21
0.187729856996
  0
ARC
  8
Layer0
  6
CONTINUOUS
 62
8
 10
57.297446179928
 20
42.999998325245
 40
3.000000000000
 50
90.000000000000
 51
180.000000000000
  0
ARC
  8
Layer0
  6
CONTINUOUS
 62
8
 10
83.297446179928
 20
42.999998325245
 40
3.000000000000
 50
0.000000000000
 51
90.000000000000
  0
ARC
  8
Layer0
  6
CONTINUOUS
 62
8
 10
53.297446179928
 20
30.999996650490
 40
1.000000000000
 50
-90.000000000000
 51
0.000000000000
  0
ARC
  8
Layer0
  6
CONTINUOUS
 62
8
 10
87.297446179928
 20
30.999996650490
 40
1.000000000000
 50
180.000000000000
 51
270.000000000000
  0
ARC
  8
Layer0
  6
CONTINUOUS
 62
8
 10
48.722670346204
 20
1.182212293445
 40
1.000000000000
 50
263.978409860957
 51
324.782005451325
  0
ARC
  8
Layer0
  6
CONTINUOUS
 62
8
 10
50.397446179928
 20
29.999996650490
 40
1.050000000000
 50
215.217994548676
 51
330.803595590367
  0
ARC
  8
Layer0
  6
CONTINUOUS
 62
8
 10
52.186999196745
 20
28.999996650490
 40
1.000000000000
 50
90.000000000000
 51
150.803595590368
  0
LINE
  8
Layer0
  6
CONTINUOUS
 62
8
 10
2.997446179928
 20
24.999996650490
 11
48.617767135608
 21
29.812266793494
  0
ARC
  8
Layer0
  6
CONTINUOUS
 62
8
 10
48.722670346204
 20
28.817784357045
 40
1.000000000000
 50
35.217994548675
 51
96.021590139043
  0
ARC
  8
Layer0
  6
CONTINUOUS
 62
8
 10
137.597446179928
 20
15.000000000000
 40
5.000000000000
 50
180.000000000000
 51
270.000000000000
  0
LINE
  8
Layer0
  6
CONTINUOUS
 62
8
 10
137.597446179928
 20
10.000000000000
 11
139.094892359856
 21
10.000000000000
  0
LINE
  8
Layer0
  6
CONTINUOUS
 62
8
 10
137.597446647212
 20
5.000000000000
 11
139.094892359856
 21
5.000000000000
  0
LINE
  8
Layer0
  6
CONTINUOUS
 62
8
 10
140.594892359856
 20
8.500000000000
 11
140.594892359856
 21
6.500000000000
  0
ARC
  8
Layer0
  6
CONTINUOUS
 62
8
 10
139.094892359856
 20
6.500000000000
 40
1.500000000000
 50
-90.000000000000
 51
0.000000000000
  0
ARC
  8
Layer0
  6
CONTINUOUS
 62
8
 10
139.094892359856
 20
8.500000000000
 40
1.500000000000
 50
0.000000000000
 51
90.000000000000
  0
ARC
  8
Layer0
  6
CONTINUOUS
 62
8
 10
137.597446179928
 20
14.999996650490
 40
5.000000000000
 50
90.000000000000
 51
180.000000000000
  0
LINE
  8
Layer0
  6
CONTINUOUS
 62
8
 10
137.597446179928
 20
19.999996650490
 11
139.094892359856
 21
19.999996650490
  0
LINE
  8
Layer0
  6
CONTINUOUS
 62
8
 10
137.597446647212
 20
24.999996650490
 11
139.094892359856
 21
24.999996650490
  0
LINE
  8
Layer0
  6
CONTINUOUS
 62
8
 10
140.594892359856
 20
21.499996650490
 11
140.594892359856
 21
23.499996650490
  0
ARC
  8
Layer0
  6
CONTINUOUS
 62
8
 10
139.094892359856
 20
23.499996650490
 40
1.500000000000
 50
0.000000000000
 51
90.000000000000
  0
ARC
  8
Layer0
  6
CONTINUOUS
 62
8
 10
139.094892359856
 20
21.499996650490
 40
1.500000000000
 50
-90.000000000000
 51
0.000000000000
  0
LINE
  8
Layer0
  6
CONTINUOUS
 62
8
 10
70.297446179928
 20
-0.000000000000
 11
88.407893163111
 21
-0.000000000000
  0
ARC
  8
Layer0
  6
CONTINUOUS
 62
8
 10
90.197446179928
 20
0.000000000000
 40
1.050000000000
 50
35.217994548676
 51
150.803595590367
  0
ARC
  8
Layer0
  6
CONTINUOUS
 62
8
 10
88.407893163111
 20
1.000000000000
 40
1.000000000000
 50
270.000000000000
 51
330.803595590368
  0
ARC
  8
Layer0
  6
CONTINUOUS
 62
8
 10
88.407893163111
 20
28.999996650490
 40
1.000000000000
 50
29.196404409632
 51
90.000000000000
  0
LINE
  8
Layer0
  6
CONTINUOUS
 62
8
 10
137.597446179928
 20
5.000000000000
 11
91.977125224248
 21
0.187729856996
  0
ARC
  8
Layer0
  6
CONTINUOUS
 62
8
 10
91.872222013652
 20
1.182212293445
 40
1.000000000000
 50
215.217994548676
 51
276.021590139044
  0
ARC
  8
Layer0
  6
CONTINUOUS
 62
8
 10
90.197446179928
 20
29.999996650490
 40
1.050000000000
 50
209.196404409633
 51
324.782005451324
  0
LINE
  8
Layer0
  6
CONTINUOUS
 62
8
 10
137.597446179928
 20
24.999996650490
 11
91.977125224248
 21
29.812266793494
  0
ARC
  8
Layer0
  6
CONTINUOUS
 62
8
 10
91.872222013652
 20
28.817784357045
 40
1.000000000000
 50
83.978409860956
 51
144.782005451324
  0
CIRCLE
  8
Layer0
  6
CONTINUOUS
 62
8
 10
137.597446647212
 20
8.000000000000
 40
1.000000000000
  0
CIRCLE
  8
Layer0
  6
CONTINUOUS
 62
8
 10
132.647699042042
 20
10.050252201274
 40
1.000000000000
  0
CIRCLE
  8
Layer0
  6
CONTINUOUS
 62
8
 10
130.597446179928
 20
14.999999532716
 40
1.000000000000
  0
CIRCLE
  8
Layer0
  6
CONTINUOUS
 62
8
 10
132.647698381202
 20
19.949747137886
 40
1.000000000000
  0
CIRCLE
  8
Layer0
  6
CONTINUOUS
 62
8
 10
137.597445712643
 20
22.000000000000
 40
1.000000000000
  0
ARC
  8
Layer0
  6
CONTINUOUS
 62
8
 10
70.297446179928
 20
45.999998325245
 40
6.000000000000
 50
210.000000000000
 51
330.000000000000
  0
ARC
  8
Layer0
  6
CONTINUOUS
 62
8
 10
59.905141334515
 20
39.999998325245
 40
6.000000000000
 50
30.000000000000
 51
90.000000000000
  0
LINE
  8
Layer0
  6
CONTINUOUS
 62
8
 10
83.297446179928
 20
45.999998325245
 11
80.689751025341
 21
45.999998325245
  0
ARC
  8
Layer0
  6
CONTINUOUS
 62
8
 10
80.689751025341
 20
39.999998325245
 40
6.000000000000
 50
90.000000000000
 51
150.000000000000
  0
CIRCLE
  8
Layer0
  6
CONTINUOUS
 62
8
 10
39.997446179928
 20
5.119239117358
 40
1.050000000000
  0
CIRCLE
  8
Layer0
  6
CONTINUOUS
 62
8
 10
30.052621815432
 20
6.168271223317
 40
1.050000000000
  0
CIRCLE
  8
Layer0
  6
CONTINUOUS
 62
8
 10
39.997446179928
 20
24.880757533132
 40
1.050000000000
  0
CIRCLE
  8
Layer0
  6
CONTINUOUS
 62
8
 10
30.052621815432
 20
23.831725427173
 40
1.050000000000
  0
CIRCLE
  8
Layer0
  6
CONTINUOUS
 62
8
 10
117.597446179224
 20
14.999998325245
 40
0.850000000000
  0
CIRCLE
  8
Layer0
  6
CONTINUOUS
 62
8
 10
107.597446179224
 20
14.999998325245
 40
0.850000000000
  0
CIRCLE
  8
Layer0
  6
CONTINUOUS
 62
8
 10
97.597446179224
 20
14.999998325245
 40
0.850000000000
  0
CIRCLE
  8
Layer0
  6
CONTINUOUS
 62
8
 10
100.597446179928
 20
5.119239117358
 40
1.050000000000
  0
CIRCLE
  8
Layer0
  6
CONTINUOUS
 62
8
 10
110.542270544424
 20
6.168271223317
 40
1.050000000000
  0
CIRCLE
  8
Layer0
  6
CONTINUOUS
 62
8
 10
100.597446179928
 20
24.880757533132
 40
1.050000000000
  0
CIRCLE
  8
Layer0
  6
CONTINUOUS
 62
8
 10
110.542270544424
 20
23.831725427173
 40
1.050000000000
  0
CIRCLE
  8
Layer0
  6
CONTINUOUS
 62
8
 10
50.397446179928
 20
9.999998325245
 40
0.800000000000
  0
CIRCLE
  8
Layer0
  6
CONTINUOUS
 62
8
 10
50.397446179928
 20
19.999998325245
 40
0.800000000000
  0
CIRCLE
  8
Layer0
  6
CONTINUOUS
 62
8
 10
90.197446179928
 20
19.999998325245
 40
0.800000000000
  0
CIRCLE
  8
Layer0
  6
CONTINUOUS
 62
8
 10
90.197446179928
 20
9.999998325245
 40
0.800000000000
  0
ENDSEC
  0
EOF
