  0
SECTION
  2
HEADER
  9
$ACADVER
  1
AC1006
  0
ENDSEC
  0
SECTION
  2
TABLES
  0
TABLE
  2
LTYPE
 70
    9
  0
LTYPE
  2
CONTINUOUS
 70
   64
  3
SOLID
 72
   65
 73
    0
 40
0.0
  0
LTYPE
  2
DASHED
 70
   64
  3
_ _ _ _ _ _ _ _ _ _ _ _ _ _ _ _ _ _ _ _ _ _ _
 72
   65
 73
    2
 40
4.0
 49
3.0
 49
-1.0
  0
LTYPE
  2
DOT
 70
   64
  3
...............................................
 72
   65
 73
    2
 40
2.0
 49
1.0
 49
-1.0
  0
LTYPE
  2
DASHDOT
 70
   64
  3
____ _ ____ _ ____ _ ____ _ ____ _ ____ _ ____
 72
   65
 73
    4
 40
8.0
 49
5.0
 49
-1.0
 49
1.0
 49
-1.0
  0
LTYPE
  2
DIVIDE
 70
   64
  3
_____ _ _ _____ _ _ _____ _ _ _____ _ _ ____
 72
   65
 73
    6
 40
10.0
 49
5.0
 49
-1.0
 49
1.0
 49
-1.0
 49
1.0
 49
-1.0
  0
ENDTAB
  0
TABLE
  2
LAYER
 70
    2
  0
LAYER
  2
NULL
 70
   64
 62
    7
  6
CONTINUOUS
  0
LAYER
  2
Layer0
 70
   64
 62
    7
  6
CONTINUOUS
  0
ENDTAB
  0
ENDSEC
  0
SECTION
  2
ENTITIES
  0
ARC
  8
Layer0
  6
CONTINUOUS
 62
8
 10
2.000000467988
 20
17.500000000001
 40
10.500000000000
 50
92.555955566535
 51
96.042331257322
  0
CIRCLE
  8
Layer0
  6
CONTINUOUS
 62
8
 10
2.000000467988
 20
26.000000000001
 40
1.300000000000
  0
ARC
  8
Layer0
  6
CONTINUOUS
 62
8
 10
2.000000467988
 20
17.500000000001
 40
5.000000000000
 50
-90.000000000000
 51
90.000000000000
  0
LINE
  8
Layer0
  6
CONTINUOUS
 62
8
 10
2.000000467988
 20
22.500000000001
 11
1.000000000000
 21
22.500000000001
  0
LINE
  8
Layer0
  6
CONTINUOUS
 62
8
 10
2.000000467988
 20
12.500000000001
 11
1.000000000000
 21
12.500000000001
  0
ARC
  8
Layer0
  6
CONTINUOUS
 62
8
 10
2.000000467988
 20
17.500000000001
 40
10.500000000000
 50
263.957668742676
 51
267.444044433465
  0
LINE
  8
Layer0
  6
CONTINUOUS
 62
8
 10
0.000000000000
 20
11.500000000001
 11
0.000000000000
 21
8.052778235693
  0
LINE
  8
Layer0
  6
CONTINUOUS
 62
8
 10
0.000000000000
 20
23.500000000001
 11
0.000000000000
 21
26.947221764309
  0
ARC
  8
Layer0
  6
CONTINUOUS
 62
8
 10
1.000000000000
 20
23.500000000001
 40
1.000000000000
 50
180.000000000000
 51
270.000000000000
  0
ARC
  8
Layer0
  6
CONTINUOUS
 62
8
 10
1.000000000000
 20
11.500000000001
 40
1.000000000000
 50
90.000000000000
 51
180.000000000000
  0
ARC
  8
Layer0
  6
CONTINUOUS
 62
8
 10
1.000000000000
 20
8.052778235693
 40
1.000000000000
 50
180.000000000000
 51
263.957668742676
  0
ARC
  8
Layer0
  6
CONTINUOUS
 62
8
 10
1.000000000000
 20
26.947221764309
 40
1.000000000000
 50
96.042331257321
 51
180.000000000000
  0
CIRCLE
  8
Layer0
  6
CONTINUOUS
 62
8
 10
57.050000467989
 20
31.000000000002
 40
1.000000000000
  0
CIRCLE
  8
Layer0
  6
CONTINUOUS
 62
8
 10
84.050000467989
 20
31.000000000001
 40
1.000000000000
  0
CIRCLE
  8
Layer0
  6
CONTINUOUS
 62
8
 10
57.050000467988
 20
4.000000000002
 40
1.000000000000
  0
CIRCLE
  8
Layer0
  6
CONTINUOUS
 62
8
 10
84.050000467988
 20
3.999999999999
 40
1.000000000000
  0
CIRCLE
  8
Layer0
  6
CONTINUOUS
 62
8
 10
85.050000467988
 20
17.500000000001
 40
4.250000000000
  0
CIRCLE
  8
Layer0
  6
CONTINUOUS
 62
8
 10
69.550000467988
 20
17.500000000002
 40
1.250000000000
  0
LINE
  8
Layer0
  6
CONTINUOUS
 62
8
 10
57.050000467989
 20
35.000000000002
 11
75.050000467988
 21
35.000000000002
  0
LINE
  8
Layer0
  6
CONTINUOUS
 62
8
 10
57.050000467989
 20
35.000000000002
 11
51.189553484806
 21
35.000000000002
  0
LINE
  8
Layer0
  6
CONTINUOUS
 62
8
 10
2.442562395931
 20
28.255513518425
 11
6.732050807569
 21
30.732050807570
  0
CIRCLE
  8
Layer0
  6
CONTINUOUS
 62
8
 10
8.010408108074
 20
23.510407640087
 40
1.300000000000
  0
CIRCLE
  8
Layer0
  6
CONTINUOUS
 62
8
 10
10.500000467988
 20
17.500000000001
 40
1.300000000000
  0
CIRCLE
  8
Layer0
  6
CONTINUOUS
 62
8
 10
8.010408108074
 20
11.489592359915
 40
1.300000000000
  0
CIRCLE
  8
Layer0
  6
CONTINUOUS
 62
8
 10
2.000000467988
 20
9.000000000001
 40
1.300000000000
  0
LINE
  8
Layer0
  6
CONTINUOUS
 62
8
 10
7.732050807569
 20
31.000000000001
 11
44.571573343241
 21
31.000000000001
  0
LINE
  8
Layer0
  6
CONTINUOUS
 62
8
 10
48.134595394504
 20
33.734594926518
 11
45.985786905614
 21
31.585786437628
  0
LINE
  8
Layer0
  6
CONTINUOUS
 62
8
 10
57.050000467989
 20
0.000000000000
 11
75.050000467988
 21
0.000000000000
  0
LINE
  8
Layer0
  6
CONTINUOUS
 62
8
 10
2.442562395932
 20
6.744486481577
 11
6.732050807569
 21
4.267949192432
  0
LINE
  8
Layer0
  6
CONTINUOUS
 62
8
 10
7.732050807569
 20
4.000000000001
 11
44.571573343241
 21
4.000000000001
  0
ARC
  8
Layer0
  6
CONTINUOUS
 62
8
 10
44.571573343241
 20
33.000000000001
 40
2.000000000000
 50
270.000000000000
 51
315.000000000000
  0
ARC
  8
Layer0
  6
CONTINUOUS
 62
8
 10
44.571573343241
 20
2.000000000001
 40
2.000000000000
 50
45.000000000000
 51
90.000000000000
  0
ARC
  8
Layer0
  6
CONTINUOUS
 62
8
 10
7.732050807569
 20
29.000000000001
 40
2.000000000000
 50
90.000000000000
 51
120.000000000000
  0
ARC
  8
Layer0
  6
CONTINUOUS
 62
8
 10
7.732050807569
 20
6.000000000001
 40
2.000000000000
 50
240.000000000000
 51
270.000000000000
  0
ARC
  8
Layer0
  6
CONTINUOUS
 62
8
 10
1.442562395932
 20
5.012435674008
 40
2.000000000000
 50
60.000000000000
 51
87.444044433465
  0
ARC
  8
Layer0
  6
CONTINUOUS
 62
8
 10
1.442562395931
 20
29.987564325994
 40
2.000000000000
 50
272.555955566535
 51
300.000000000000
  0
ARC
  8
Layer0
  6
CONTINUOUS
 62
8
 10
49.400000467988
 20
35.000000000002
 40
1.050000000000
 50
-105.803595590368
 51
-29.196404409632
  0
CIRCLE
  8
Layer0
  6
CONTINUOUS
 62
8
 10
49.400000467988
 20
17.500000000001
 40
1.050000000000
  0
CIRCLE
  8
Layer0
  6
CONTINUOUS
 62
8
 10
49.400000467988
 20
26.500000000001
 40
1.050000000000
  0
ARC
  8
Layer0
  6
CONTINUOUS
 62
8
 10
48.841702175691
 20
33.027488145331
 40
1.000000000000
 50
74.196404409632
 51
135.000000000000
  0
ARC
  8
Layer0
  6
CONTINUOUS
 62
8
 10
51.189553484806
 20
34.000000000002
 40
1.000000000000
 50
90.000000000000
 51
150.803595590368
  0
LINE
  8
Layer0
  6
CONTINUOUS
 62
8
 10
57.050000467989
 20
0.000000000000
 11
51.189553484806
 21
0.000000000000
  0
LINE
  8
Layer0
  6
CONTINUOUS
 62
8
 10
48.134595394504
 20
1.265405073484
 11
45.985786905614
 21
3.414213562374
  0
ARC
  8
Layer0
  6
CONTINUOUS
 62
8
 10
49.400000467988
 20
0.000000000000
 40
1.050000000000
 50
29.196404409632
 51
105.803595590368
  0
ARC
  8
Layer0
  6
CONTINUOUS
 62
8
 10
48.841702175691
 20
1.972511854671
 40
1.000000000000
 50
225.000000000000
 51
285.803595590368
  0
ARC
  8
Layer0
  6
CONTINUOUS
 62
8
 10
51.189553484806
 20
1.000000000000
 40
1.000000000000
 50
209.196404409632
 51
270.000000000000
  0
CIRCLE
  8
Layer0
  6
CONTINUOUS
 62
8
 10
49.400000467988
 20
8.500000000001
 40
1.050000000000
  0
CIRCLE
  8
Layer0
  6
CONTINUOUS
 62
8
 10
33.400000467988
 20
27.000000000001
 40
0.850000000000
  0
CIRCLE
  8
Layer0
  6
CONTINUOUS
 62
8
 10
43.400000467988
 20
27.000000000001
 40
0.850000000000
  0
CIRCLE
  8
Layer0
  6
CONTINUOUS
 62
8
 10
33.400000467988
 20
8.000000000001
 40
0.850000000000
  0
CIRCLE
  8
Layer0
  6
CONTINUOUS
 62
8
 10
43.400000467988
 20
8.000000000001
 40
0.850000000000
  0
ARC
  8
Layer0
  6
CONTINUOUS
 62
8
 10
148.100000467989
 20
17.500000000001
 40
10.500000000000
 50
83.957668742678
 51
87.444044433465
  0
CIRCLE
  8
Layer0
  6
CONTINUOUS
 62
8
 10
148.100000467988
 20
26.000000000001
 40
1.300000000000
  0
ARC
  8
Layer0
  6
CONTINUOUS
 62
8
 10
148.100000467988
 20
17.500000000001
 40
5.000000000000
 50
90.000000000000
 51
270.000000000000
  0
LINE
  8
Layer0
  6
CONTINUOUS
 62
8
 10
148.100000467988
 20
22.500000000001
 11
149.100000935977
 21
22.500000000001
  0
LINE
  8
Layer0
  6
CONTINUOUS
 62
8
 10
148.100000467988
 20
12.500000000001
 11
149.100000935977
 21
12.500000000001
  0
ARC
  8
Layer0
  6
CONTINUOUS
 62
8
 10
148.100000467988
 20
17.500000000001
 40
10.500000000000
 50
272.555955566535
 51
276.042331257324
  0
LINE
  8
Layer0
  6
CONTINUOUS
 62
8
 10
150.100000935977
 20
11.500000000001
 11
150.100000935977
 21
8.052778235693
  0
LINE
  8
Layer0
  6
CONTINUOUS
 62
8
 10
150.100000935977
 20
23.500000000001
 11
150.100000935977
 21
26.947221764309
  0
ARC
  8
Layer0
  6
CONTINUOUS
 62
8
 10
149.100000935977
 20
23.500000000001
 40
1.000000000000
 50
-90.000000000000
 51
0.000000000000
  0
ARC
  8
Layer0
  6
CONTINUOUS
 62
8
 10
149.100000935977
 20
11.500000000001
 40
1.000000000000
 50
0.000000000000
 51
90.000000000000
  0
ARC
  8
Layer0
  6
CONTINUOUS
 62
8
 10
149.100000935977
 20
8.052778235693
 40
1.000000000000
 50
-83.957668742676
 51
0.000000000000
  0
ARC
  8
Layer0
  6
CONTINUOUS
 62
8
 10
149.100000935977
 20
26.947221764309
 40
1.000000000000
 50
0.000000000001
 51
83.957668742680
  0
LINE
  8
Layer0
  6
CONTINUOUS
 62
8
 10
93.050000467988
 20
35.000000000002
 11
75.050000467988
 21
35.000000000002
  0
LINE
  8
Layer0
  6
CONTINUOUS
 62
8
 10
93.050000467988
 20
35.000000000002
 11
98.910447451171
 21
35.000000000002
  0
LINE
  8
Layer0
  6
CONTINUOUS
 62
8
 10
147.657438540045
 20
28.255513518425
 11
143.367950128408
 21
30.732050807570
  0
CIRCLE
  8
Layer0
  6
CONTINUOUS
 62
8
 10
142.089592827903
 20
23.510407640087
 40
1.300000000000
  0
CIRCLE
  8
Layer0
  6
CONTINUOUS
 62
8
 10
139.600000467988
 20
17.500000000001
 40
1.300000000000
  0
CIRCLE
  8
Layer0
  6
CONTINUOUS
 62
8
 10
142.089592827903
 20
11.489592359915
 40
1.300000000000
  0
CIRCLE
  8
Layer0
  6
CONTINUOUS
 62
8
 10
148.100000467988
 20
9.000000000001
 40
1.300000000000
  0
LINE
  8
Layer0
  6
CONTINUOUS
 62
8
 10
142.367950128408
 20
31.000000000001
 11
105.528427592736
 21
31.000000000001
  0
LINE
  8
Layer0
  6
CONTINUOUS
 62
8
 10
101.965405541473
 20
33.734594926518
 11
104.114214030363
 21
31.585786437628
  0
LINE
  8
Layer0
  6
CONTINUOUS
 62
8
 10
93.050000467988
 20
0.000000000000
 11
75.050000467988
 21
0.000000000000
  0
LINE
  8
Layer0
  6
CONTINUOUS
 62
8
 10
147.657438540045
 20
6.744486481577
 11
143.367950128408
 21
4.267949192432
  0
LINE
  8
Layer0
  6
CONTINUOUS
 62
8
 10
142.367950128408
 20
4.000000000001
 11
105.528427592736
 21
4.000000000001
  0
ARC
  8
Layer0
  6
CONTINUOUS
 62
8
 10
105.528427592736
 20
33.000000000001
 40
2.000000000000
 50
225.000000000000
 51
270.000000000000
  0
ARC
  8
Layer0
  6
CONTINUOUS
 62
8
 10
105.528427592736
 20
2.000000000001
 40
2.000000000000
 50
90.000000000000
 51
135.000000000000
  0
ARC
  8
Layer0
  6
CONTINUOUS
 62
8
 10
142.367950128408
 20
29.000000000001
 40
2.000000000000
 50
60.000000000000
 51
90.000000000000
  0
ARC
  8
Layer0
  6
CONTINUOUS
 62
8
 10
142.367950128408
 20
6.000000000001
 40
2.000000000000
 50
270.000000000000
 51
300.000000000000
  0
ARC
  8
Layer0
  6
CONTINUOUS
 62
8
 10
148.657438540045
 20
5.012435674008
 40
2.000000000000
 50
92.555955566535
 51
120.000000000000
  0
ARC
  8
Layer0
  6
CONTINUOUS
 62
8
 10
148.657438540045
 20
29.987564325994
 40
2.000000000000
 50
240.000000000000
 51
267.444044433465
  0
ARC
  8
Layer0
  6
CONTINUOUS
 62
8
 10
100.700000467988
 20
35.000000000002
 40
1.050000000000
 50
209.196404409633
 51
285.803595590368
  0
CIRCLE
  8
Layer0
  6
CONTINUOUS
 62
8
 10
100.700000467988
 20
17.500000000001
 40
1.050000000000
  0
CIRCLE
  8
Layer0
  6
CONTINUOUS
 62
8
 10
100.700000467988
 20
26.500000000001
 40
1.050000000000
  0
ARC
  8
Layer0
  6
CONTINUOUS
 62
8
 10
101.258298760286
 20
33.027488145331
 40
1.000000000000
 50
45.000000000000
 51
105.803595590368
  0
ARC
  8
Layer0
  6
CONTINUOUS
 62
8
 10
98.910447451171
 20
34.000000000002
 40
1.000000000000
 50
29.196404409632
 51
90.000000000000
  0
LINE
  8
Layer0
  6
CONTINUOUS
 62
8
 10
93.050000467988
 20
0.000000000000
 11
98.910447451171
 21
0.000000000000
  0
LINE
  8
Layer0
  6
CONTINUOUS
 62
8
 10
101.965405541473
 20
1.265405073484
 11
104.114214030363
 21
3.414213562374
  0
ARC
  8
Layer0
  6
CONTINUOUS
 62
8
 10
100.700000467988
 20
0.000000000000
 40
1.050000000000
 50
74.196404409632
 51
150.803595590368
  0
ARC
  8
Layer0
  6
CONTINUOUS
 62
8
 10
101.258298760286
 20
1.972511854671
 40
1.000000000000
 50
254.196404409632
 51
315.000000000000
  0
ARC
  8
Layer0
  6
CONTINUOUS
 62
8
 10
98.910447451171
 20
1.000000000000
 40
1.000000000000
 50
270.000000000000
 51
330.803595590368
  0
CIRCLE
  8
Layer0
  6
CONTINUOUS
 62
8
 10
100.700000467988
 20
8.500000000001
 40
1.050000000000
  0
CIRCLE
  8
Layer0
  6
CONTINUOUS
 62
8
 10
116.700000467988
 20
27.000000000001
 40
0.850000000000
  0
CIRCLE
  8
Layer0
  6
CONTINUOUS
 62
8
 10
106.700000467988
 20
27.000000000001
 40
0.850000000000
  0
CIRCLE
  8
Layer0
  6
CONTINUOUS
 62
8
 10
116.700000467988
 20
8.000000000001
 40
0.850000000000
  0
CIRCLE
  8
Layer0
  6
CONTINUOUS
 62
8
 10
106.700000467988
 20
8.000000000001
 40
0.850000000000
  0
ENDSEC
  0
EOF
