  0
SECTION
  2
HEADER
  9
$ACADVER
  1
AC1006
  0
ENDSEC
  0
SECTION
  2
TABLES
  0
TABLE
  2
LTYPE
 70
    9
  0
LTYPE
  2
CONTINUOUS
 70
   64
  3
SOLID
 72
   65
 73
    0
 40
0.0
  0
LTYPE
  2
DASHED
 70
   64
  3
_ _ _ _ _ _ _ _ _ _ _ _ _ _ _ _ _ _ _ _ _ _ _
 72
   65
 73
    2
 40
4.0
 49
3.0
 49
-1.0
  0
LTYPE
  2
DOT
 70
   64
  3
...............................................
 72
   65
 73
    2
 40
2.0
 49
1.0
 49
-1.0
  0
LTYPE
  2
DASHDOT
 70
   64
  3
____ _ ____ _ ____ _ ____ _ ____ _ ____ _ ____
 72
   65
 73
    4
 40
8.0
 49
5.0
 49
-1.0
 49
1.0
 49
-1.0
  0
LTYPE
  2
DIVIDE
 70
   64
  3
_____ _ _ _____ _ _ _____ _ _ _____ _ _ ____
 72
   65
 73
    6
 40
10.0
 49
5.0
 49
-1.0
 49
1.0
 49
-1.0
 49
1.0
 49
-1.0
  0
ENDTAB
  0
TABLE
  2
LAYER
 70
    2
  0
LAYER
  2
NULL
 70
   64
 62
    7
  6
CONTINUOUS
  0
LAYER
  2
Layer0
 70
   64
 62
    7
  6
CONTINUOUS
  0
ENDTAB
  0
ENDSEC
  0
SECTION
  2
ENTITIES
  0
ARC
  8
Layer0
  6
CONTINUOUS
 62
8
 10
17.500000000001
 20
2.000000467988
 40
10.500000000000
 50
-6.042331257322
 51
-2.555955566535
  0
CIRCLE
  8
Layer0
  6
CONTINUOUS
 62
8
 10
26.000000000001
 20
2.000000467988
 40
1.300000000000
  0
ARC
  8
Layer0
  6
CONTINUOUS
 62
8
 10
17.500000000001
 20
2.000000467988
 40
5.000000000000
 50
-360.000000000000
 51
-180.000000000000
  0
LINE
  8
Layer0
  6
CONTINUOUS
 62
8
 10
22.500000000001
 20
2.000000467988
 11
22.500000000001
 21
1.000000000000
  0
LINE
  8
Layer0
  6
CONTINUOUS
 62
8
 10
12.500000000001
 20
2.000000467988
 11
12.500000000001
 21
1.000000000000
  0
ARC
  8
Layer0
  6
CONTINUOUS
 62
8
 10
17.500000000001
 20
2.000000467988
 40
10.500000000000
 50
-177.444044433465
 51
-173.957668742676
  0
LINE
  8
Layer0
  6
CONTINUOUS
 62
8
 10
11.500000000001
 20
0.000000000000
 11
8.052778235693
 21
0.000000000000
  0
LINE
  8
Layer0
  6
CONTINUOUS
 62
8
 10
23.500000000001
 20
0.000000000000
 11
26.947221764309
 21
0.000000000000
  0
ARC
  8
Layer0
  6
CONTINUOUS
 62
8
 10
23.500000000001
 20
1.000000000000
 40
1.000000000000
 50
-180.000000000000
 51
-90.000000000000
  0
ARC
  8
Layer0
  6
CONTINUOUS
 62
8
 10
11.500000000001
 20
1.000000000000
 40
1.000000000000
 50
-90.000000000000
 51
0.000000000000
  0
ARC
  8
Layer0
  6
CONTINUOUS
 62
8
 10
8.052778235693
 20
1.000000000000
 40
1.000000000000
 50
-173.957668742676
 51
-90.000000000000
  0
ARC
  8
Layer0
  6
CONTINUOUS
 62
8
 10
26.947221764309
 20
1.000000000000
 40
1.000000000000
 50
-90.000000000000
 51
-6.042331257321
  0
LINE
  8
Layer0
  6
CONTINUOUS
 62
8
 10
35.000000000002
 20
52.550000467990
 11
35.000000000002
 21
51.189553484806
  0
LINE
  8
Layer0
  6
CONTINUOUS
 62
8
 10
28.255513518425
 20
2.442562395931
 11
30.732050807570
 21
6.732050807569
  0
CIRCLE
  8
Layer0
  6
CONTINUOUS
 62
8
 10
23.510407640087
 20
8.010408108074
 40
1.300000000000
  0
CIRCLE
  8
Layer0
  6
CONTINUOUS
 62
8
 10
17.500000000001
 20
10.500000467988
 40
1.300000000000
  0
CIRCLE
  8
Layer0
  6
CONTINUOUS
 62
8
 10
11.489592359915
 20
8.010408108074
 40
1.300000000000
  0
CIRCLE
  8
Layer0
  6
CONTINUOUS
 62
8
 10
9.000000000001
 20
2.000000467988
 40
1.300000000000
  0
LINE
  8
Layer0
  6
CONTINUOUS
 62
8
 10
31.000000000001
 20
7.732050807569
 11
31.000000000001
 21
44.571573343241
  0
LINE
  8
Layer0
  6
CONTINUOUS
 62
8
 10
33.734594926518
 20
48.134595394504
 11
31.585786437628
 21
45.985786905614
  0
LINE
  8
Layer0
  6
CONTINUOUS
 62
8
 10
-0.000000000000
 20
57.050000467989
 11
-0.000000000000
 21
75.050000467988
  0
LINE
  8
Layer0
  6
CONTINUOUS
 62
8
 10
6.744486481577
 20
2.442562395932
 11
4.267949192432
 21
6.732050807569
  0
LINE
  8
Layer0
  6
CONTINUOUS
 62
8
 10
4.000000000001
 20
7.732050807569
 11
4.000000000001
 21
44.571573343241
  0
ARC
  8
Layer0
  6
CONTINUOUS
 62
8
 10
33.000000000001
 20
44.571573343241
 40
2.000000000000
 50
-225.000000000000
 51
-180.000000000000
  0
ARC
  8
Layer0
  6
CONTINUOUS
 62
8
 10
2.000000000001
 20
44.571573343241
 40
2.000000000000
 50
-360.000000000000
 51
-315.000000000000
  0
ARC
  8
Layer0
  6
CONTINUOUS
 62
8
 10
29.000000000001
 20
7.732050807569
 40
2.000000000000
 50
-30.000000000000
 51
0.000000000000
  0
ARC
  8
Layer0
  6
CONTINUOUS
 62
8
 10
6.000000000001
 20
7.732050807569
 40
2.000000000000
 50
-180.000000000000
 51
-150.000000000000
  0
ARC
  8
Layer0
  6
CONTINUOUS
 62
8
 10
5.012435674008
 20
1.442562395932
 40
2.000000000000
 50
-357.444044433465
 51
-330.000000000000
  0
ARC
  8
Layer0
  6
CONTINUOUS
 62
8
 10
29.987564325994
 20
1.442562395931
 40
2.000000000000
 50
-210.000000000000
 51
-182.555955566535
  0
ARC
  8
Layer0
  6
CONTINUOUS
 62
8
 10
35.000000000002
 20
49.400000467988
 40
1.050000000000
 50
-240.803595590368
 51
-164.196404409632
  0
CIRCLE
  8
Layer0
  6
CONTINUOUS
 62
8
 10
17.500000000001
 20
49.400000467988
 40
1.050000000000
  0
CIRCLE
  8
Layer0
  6
CONTINUOUS
 62
8
 10
26.500000000001
 20
49.400000467988
 40
1.050000000000
  0
ARC
  8
Layer0
  6
CONTINUOUS
 62
8
 10
33.027488145331
 20
48.841702175691
 40
1.000000000000
 50
-45.000000000000
 51
15.803595590368
  0
ARC
  8
Layer0
  6
CONTINUOUS
 62
8
 10
34.000000000002
 20
51.189553484806
 40
1.000000000000
 50
-60.803595590368
 51
0.000000000000
  0
LINE
  8
Layer0
  6
CONTINUOUS
 62
8
 10
-0.000000000000
 20
57.050000467989
 11
-0.000000000000
 21
51.189553484806
  0
LINE
  8
Layer0
  6
CONTINUOUS
 62
8
 10
1.265405073484
 20
48.134595394504
 11
3.414213562374
 21
45.985786905614
  0
ARC
  8
Layer0
  6
CONTINUOUS
 62
8
 10
-0.000000000000
 20
49.400000467988
 40
1.050000000000
 50
-15.803595590368
 51
60.803595590368
  0
ARC
  8
Layer0
  6
CONTINUOUS
 62
8
 10
1.972511854671
 20
48.841702175691
 40
1.000000000000
 50
-195.803595590368
 51
-135.000000000000
  0
ARC
  8
Layer0
  6
CONTINUOUS
 62
8
 10
1.000000000000
 20
51.189553484806
 40
1.000000000000
 50
-180.000000000000
 51
-119.196404409632
  0
CIRCLE
  8
Layer0
  6
CONTINUOUS
 62
8
 10
8.500000000001
 20
49.400000467988
 40
1.050000000000
  0
CIRCLE
  8
Layer0
  6
CONTINUOUS
 62
8
 10
27.000000000001
 20
33.400000467988
 40
0.850000000000
  0
CIRCLE
  8
Layer0
  6
CONTINUOUS
 62
8
 10
27.000000000001
 20
43.400000467988
 40
0.850000000000
  0
CIRCLE
  8
Layer0
  6
CONTINUOUS
 62
8
 10
8.000000000001
 20
33.400000467988
 40
0.850000000000
  0
CIRCLE
  8
Layer0
  6
CONTINUOUS
 62
8
 10
8.000000000001
 20
43.400000467988
 40
0.850000000000
  0
ARC
  8
Layer0
  6
CONTINUOUS
 62
8
 10
17.500000000001
 20
148.100000467989
 40
10.500000000000
 50
2.555955566535
 51
6.042331257322
  0
CIRCLE
  8
Layer0
  6
CONTINUOUS
 62
8
 10
26.000000000001
 20
148.100000467988
 40
1.300000000000
  0
ARC
  8
Layer0
  6
CONTINUOUS
 62
8
 10
17.500000000001
 20
148.100000467988
 40
5.000000000000
 50
-180.000000000000
 51
0.000000000000
  0
LINE
  8
Layer0
  6
CONTINUOUS
 62
8
 10
22.500000000001
 20
148.100000467988
 11
22.500000000001
 21
149.100000935977
  0
LINE
  8
Layer0
  6
CONTINUOUS
 62
8
 10
12.500000000001
 20
148.100000467988
 11
12.500000000001
 21
149.100000935977
  0
ARC
  8
Layer0
  6
CONTINUOUS
 62
8
 10
17.500000000001
 20
148.100000467988
 40
10.500000000000
 50
-186.042331257324
 51
-182.555955566535
  0
LINE
  8
Layer0
  6
CONTINUOUS
 62
8
 10
11.500000000001
 20
150.100000935977
 11
8.052778235693
 21
150.100000935977
  0
LINE
  8
Layer0
  6
CONTINUOUS
 62
8
 10
23.500000000001
 20
150.100000935977
 11
26.947221764309
 21
150.100000935977
  0
ARC
  8
Layer0
  6
CONTINUOUS
 62
8
 10
23.500000000001
 20
149.100000935977
 40
1.000000000000
 50
-270.000000000000
 51
-180.000000000000
  0
ARC
  8
Layer0
  6
CONTINUOUS
 62
8
 10
11.500000000001
 20
149.100000935977
 40
1.000000000000
 50
-360.000000000000
 51
-270.000000000000
  0
ARC
  8
Layer0
  6
CONTINUOUS
 62
8
 10
8.052778235693
 20
149.100000935977
 40
1.000000000000
 50
-269.999999999999
 51
-186.042331257323
  0
ARC
  8
Layer0
  6
CONTINUOUS
 62
8
 10
26.947221764309
 20
149.100000935977
 40
1.000000000000
 50
-353.957668742679
 51
-270.000000000000
  0
LINE
  8
Layer0
  6
CONTINUOUS
 62
8
 10
28.255513518425
 20
147.657438540045
 11
30.732050807570
 21
143.367950128408
  0
CIRCLE
  8
Layer0
  6
CONTINUOUS
 62
8
 10
23.510407640087
 20
142.089592827903
 40
1.300000000000
  0
CIRCLE
  8
Layer0
  6
CONTINUOUS
 62
8
 10
17.500000000001
 20
139.600000467988
 40
1.300000000000
  0
CIRCLE
  8
Layer0
  6
CONTINUOUS
 62
8
 10
11.489592359915
 20
142.089592827903
 40
1.300000000000
  0
CIRCLE
  8
Layer0
  6
CONTINUOUS
 62
8
 10
9.000000000001
 20
148.100000467988
 40
1.300000000000
  0
LINE
  8
Layer0
  6
CONTINUOUS
 62
8
 10
31.000000000001
 20
142.367950128408
 11
31.000000000001
 21
105.528427592736
  0
LINE
  8
Layer0
  6
CONTINUOUS
 62
8
 10
33.734594926518
 20
101.965405541473
 11
31.585786437628
 21
104.114214030363
  0
LINE
  8
Layer0
  6
CONTINUOUS
 62
8
 10
-0.000000000000
 20
93.050000467988
 11
-0.000000000000
 21
75.050000467988
  0
LINE
  8
Layer0
  6
CONTINUOUS
 62
8
 10
6.744486481577
 20
147.657438540045
 11
4.267949192432
 21
143.367950128408
  0
LINE
  8
Layer0
  6
CONTINUOUS
 62
8
 10
4.000000000001
 20
142.367950128408
 11
4.000000000001
 21
105.528427592736
  0
ARC
  8
Layer0
  6
CONTINUOUS
 62
8
 10
33.000000000001
 20
105.528427592736
 40
2.000000000000
 50
-180.000000000000
 51
-135.000000000000
  0
ARC
  8
Layer0
  6
CONTINUOUS
 62
8
 10
2.000000000001
 20
105.528427592736
 40
2.000000000000
 50
-45.000000000000
 51
0.000000000000
  0
ARC
  8
Layer0
  6
CONTINUOUS
 62
8
 10
29.000000000001
 20
142.367950128408
 40
2.000000000000
 50
-360.000000000000
 51
-330.000000000000
  0
ARC
  8
Layer0
  6
CONTINUOUS
 62
8
 10
6.000000000001
 20
142.367950128408
 40
2.000000000000
 50
-210.000000000000
 51
-180.000000000000
  0
ARC
  8
Layer0
  6
CONTINUOUS
 62
8
 10
5.012435674008
 20
148.657438540045
 40
2.000000000000
 50
-30.000000000000
 51
-2.555955566535
  0
ARC
  8
Layer0
  6
CONTINUOUS
 62
8
 10
29.987564325994
 20
148.657438540045
 40
2.000000000000
 50
-177.444044433465
 51
-150.000000000000
  0
ARC
  8
Layer0
  6
CONTINUOUS
 62
8
 10
35.000000000002
 20
100.700000467988
 40
1.050000000000
 50
-195.803595590368
 51
-119.196404409633
  0
CIRCLE
  8
Layer0
  6
CONTINUOUS
 62
8
 10
17.500000000001
 20
100.700000467988
 40
1.050000000000
  0
CIRCLE
  8
Layer0
  6
CONTINUOUS
 62
8
 10
26.500000000001
 20
100.700000467988
 40
1.050000000000
  0
ARC
  8
Layer0
  6
CONTINUOUS
 62
8
 10
33.027488145331
 20
101.258298760286
 40
1.000000000000
 50
-15.803595590369
 51
44.999999999999
  0
ARC
  8
Layer0
  6
CONTINUOUS
 62
8
 10
34.000000000002
 20
98.910447451171
 40
1.000000000000
 50
-360.000000000000
 51
-299.196404409632
  0
LINE
  8
Layer0
  6
CONTINUOUS
 62
8
 10
-0.000000000000
 20
93.050000467988
 11
-0.000000000000
 21
98.910447451171
  0
LINE
  8
Layer0
  6
CONTINUOUS
 62
8
 10
1.265405073484
 20
101.965405541473
 11
3.414213562374
 21
104.114214030363
  0
ARC
  8
Layer0
  6
CONTINUOUS
 62
8
 10
-0.000000000000
 20
100.700000467988
 40
1.050000000000
 50
-60.803595590367
 51
15.803595590368
  0
ARC
  8
Layer0
  6
CONTINUOUS
 62
8
 10
1.972511854671
 20
101.258298760286
 40
1.000000000000
 50
-225.000000000000
 51
-164.196404409632
  0
ARC
  8
Layer0
  6
CONTINUOUS
 62
8
 10
1.000000000000
 20
98.910447451171
 40
1.000000000000
 50
-240.803595590368
 51
-180.000000000000
  0
CIRCLE
  8
Layer0
  6
CONTINUOUS
 62
8
 10
8.500000000001
 20
100.700000467988
 40
1.050000000000
  0
CIRCLE
  8
Layer0
  6
CONTINUOUS
 62
8
 10
27.000000000001
 20
116.700000467988
 40
0.850000000000
  0
CIRCLE
  8
Layer0
  6
CONTINUOUS
 62
8
 10
27.000000000001
 20
106.700000467988
 40
0.850000000000
  0
CIRCLE
  8
Layer0
  6
CONTINUOUS
 62
8
 10
8.000000000001
 20
116.700000467988
 40
0.850000000000
  0
CIRCLE
  8
Layer0
  6
CONTINUOUS
 62
8
 10
8.000000000001
 20
106.700000467988
 40
0.850000000000
  0
CIRCLE
  8
Layer0
  6
CONTINUOUS
 62
8
 10
45.500000000001
 20
88.550000467990
 40
1.000000000000
  0
CIRCLE
  8
Layer0
  6
CONTINUOUS
 62
8
 10
18.500000000001
 20
88.550000467988
 40
1.000000000000
  0
CIRCLE
  8
Layer0
  6
CONTINUOUS
 62
8
 10
45.500000000002
 20
61.550000467990
 40
1.000000000000
  0
CIRCLE
  8
Layer0
  6
CONTINUOUS
 62
8
 10
18.500000000002
 20
61.550000467987
 40
1.000000000000
  0
CIRCLE
  8
Layer0
  6
CONTINUOUS
 62
8
 10
17.500000000001
 20
75.050000467988
 40
4.250000000000
  0
CIRCLE
  8
Layer0
  6
CONTINUOUS
 62
8
 10
33.000000000001
 20
75.050000467989
 40
1.250000000000
  0
ARC
  8
Layer0
  6
CONTINUOUS
 62
8
 10
45.500000000002
 20
61.550000467990
 40
4.000000000000
 50
-90.000000000000
 51
64.623066474848
  0
LINE
  8
Layer0
  6
CONTINUOUS
 62
8
 10
45.500000000002
 20
57.550000467990
 11
40.000000000002
 21
57.550000467990
  0
LINE
  8
Layer0
  6
CONTINUOUS
 62
8
 10
45.500000000002
 20
67.874555788326
 11
45.500000000002
 21
75.050000467988
  0
ARC
  8
Layer0
  6
CONTINUOUS
 62
8
 10
48.500000000002
 20
67.874555788326
 40
3.000000000000
 50
-180.000000000000
 51
-115.376933525152
  0
ARC
  8
Layer0
  6
CONTINUOUS
 62
8
 10
40.000000000002
 20
52.550000467990
 40
5.000000000000
 50
-270.000000000000
 51
-180.000000000000
  0
LINE
  8
Layer0
  6
CONTINUOUS
 62
8
 10
35.000000000002
 20
97.550000467987
 11
35.000000000002
 21
98.910447451171
  0
ARC
  8
Layer0
  6
CONTINUOUS
 62
8
 10
45.500000000002
 20
88.550000467987
 40
4.000000000000
 50
-64.623066474848
 51
90.000000000000
  0
LINE
  8
Layer0
  6
CONTINUOUS
 62
8
 10
45.500000000002
 20
92.550000467987
 11
40.000000000002
 21
92.550000467987
  0
LINE
  8
Layer0
  6
CONTINUOUS
 62
8
 10
45.500000000002
 20
82.225445147651
 11
45.500000000002
 21
75.050000467988
  0
ARC
  8
Layer0
  6
CONTINUOUS
 62
8
 10
48.500000000002
 20
82.225445147651
 40
3.000000000000
 50
-244.623066474848
 51
-180.000000000000
  0
ARC
  8
Layer0
  6
CONTINUOUS
 62
8
 10
40.000000000002
 20
97.550000467987
 40
5.000000000000
 50
-180.000000000000
 51
-90.000000000000
  0
ENDSEC
  0
EOF
